<svg xmlns="http://www.w3.org/2000/svg" viewBox="0 0 540.52 464.1"><defs><style>.cls-1{fill:#010101;}.cls-2{fill:#d52d27;}.cls-3,.cls-5{fill:#1e1c1a;}.cls-4{fill:#fff;}.cls-5{font-size:103.62px;font-family:NexaBold, Nexa Bold;letter-spacing:0.06em;}.cls-6{letter-spacing:0.09em;}.cls-7{letter-spacing:0.06em;}.cls-8{letter-spacing:0.08em;}</style></defs><g id="Layer_2" data-name="Layer 2"><g id="Layer_1-2" data-name="Layer 1"><path class="cls-1" d="M158.12,202.15V128L141.2,98.05l5.86-87.84V3.7l4.88-2.28.49.82-.49,70.43,4.72-.32,1-70.93s5.54-3.41,6.67,1c-.16,4.88-.81,69.62-.81,69.62l4.23-.49-.81-69.46s3.9-4.55,6.83-.16V72l6.18-.65L178,3.05s6.5-3.74,6.83,9c.16,9.92,2.28,58.88,2.28,58.88v30.2s-9.44,11.44-11.55,20.72c-2.12,7.32-3.26,20.49-3.26,20.49l-1,59.05Z"/><path class="cls-1" d="M249.87,192.07h29.6s15.29-27.33,29.28-37.74c8.14-14.31,20.17-27.65,9.11-97.93-7.81-41-10.41-54.33-10.41-54.33h-7.81s13.67,80,13.67,95S311,144.9,293.79,159.86c-15,15.29-19.2,17.57-19.2,17.57l-8.13,1h-9.11s-43.6-29.6-40.67-70.92C219,66.16,230,10.53,230,10.53L231.32,0,221.24,1.75s-27,108-7.16,137.94C229.05,165.07,247.59,183.28,249.87,192.07Z"/><path class="cls-1" d="M357.23,200.2V129.93s-11.39-24.4-27.33-42.29c-1.95-16.92-8.13-66,30.26-84.59,9.43.32,47.49,13,35.13,87.51-4.88,9.11-22.45,28.63-24.07,37.09-1.3,6.83,0,74.5,0,74.5Z"/><path class="cls-2" d="M271.34,170.27h-12s-39-30.58-37.41-63.44a435.87,435.87,0,0,1,6.83-58.56s10.09-10.74,32.21,0c12.36,4.23,29.93,12,38.39.33,1.95-.65,14.31,53.35,3.25,81C291.51,148.8,278.82,167.34,271.34,170.27Z"/><path class="cls-3" d="M151.94,308.54s22.45-5.21,25.05-6.18,0,12.69,0,12.69-2.93,19.84-8.13,23.74S155.85,334.24,151.94,308.54Z"/><path class="cls-3" d="M257,290.27s.65,33.83-9.43,35.46-30.91,3.91-30.91,3.91-14.06,6.7,35.79,7.15l48.15.44s49.45-7.92-24.4-12.8l-1.31-2.93-2.27-31.23Z"/><path class="cls-3" d="M353.32,302.31s16.6,6.23,21.15,5.9c1,4.88,2.28,22.13-8.13,26.36C359.83,335.22,351.7,335.77,353.32,302.31Z"/><path class="cls-3" d="M41,327.73l11.71-47.82s3.91-5.21-18.21-6.18c-18.87-3.58-53.69-3.26-21.15-19.52,32.21-16.27,72.55-35.14,72.55-35.14s20.49-7.81,18.54,0c-3.58,3.58-24.72,12-20.17,27.33,5.21,10.41,16.92,37.09,16.92,46.85,0,0-11.71,7.48-31.56,18.54C56,321.23,47.83,330.66,41,327.73Z"/><path class="cls-3" d="M499.52,330.2l-11.71-47.82s-3.91-5.21,18.22-6.18c18.87-3.58,53.68-3.26,21.14-19.53-32.2-16.26-72.55-35.13-72.55-35.13s-20.49-7.81-18.54,0c3.58,3.58,24.73,12,20.17,27.33-5.2,10.41-16.92,37.09-16.92,46.85,0,0,11.72,7.48,31.56,18.54C484.55,323.69,492.69,333.13,499.52,330.2Z"/><path class="cls-3" d="M116.48,308.21s-6.51-31.55-13.66-42c-5.54-13.67-28.31-30.26,15.61-41.32s110.62-29.61,190-22.78,130.78,27,136.64,34.49-7.16,31.23-7.16,31.23l-12.69,40.34-5.53,2.61s-82.63-26.36-114.52-26.36-100.85-1.62-141,12.69S121.68,314.07,116.48,308.21Z"/><path class="cls-4" d="M149.87,241.32c-2.41-2.57-8.14-4.38-14.13-3.17-7.73,1.56-10.77,5.37-10,9.13,1,4.41,7,4.54,13.44,3.83,9.55-1.05,22.74.35,24.55,12.28,1.75,11.55-9.32,18.3-18.94,20.26-9,1.83-19.45.73-25.3-7.45,2.88-2.42,4.33-3.63,7.27-6,3.58,5,10.12,6.16,16.45,4.88s11.62-4.41,10.61-9.95c-.87-4.8-6.65-5.95-13.73-5.12-9.12,1.06-22.13.44-24.52-10.7-2.34-10.89,8.92-17.61,18.11-19.42,8.67-1.7,18.21-1.11,23.72,6.07C154.4,238.07,152.88,239.15,149.87,241.32Z"/><path class="cls-4" d="M179.06,276.38q-3.7-25.63-7.4-51.28c4.2-.6,6.3-.89,10.51-1.43q3.32,25.7,6.61,51.38C184.89,275.55,183,275.82,179.06,276.38Z"/><path class="cls-4" d="M247.46,232.75c-5.74,7.61-11.33,15.4-16.7,23.28l-2,.12q-9.25-10.81-19-21.19,1.68,18.76,3.35,37.52c-3.93.35-5.9.54-9.82.95q-2.72-25.76-5.42-51.52c4.9-.51,7.35-.75,12.25-1.17q9.73,10.23,19,20.93Q237,230,245.47,218.59c4.88-.16,7.32-.23,12.2-.31q.43,25.91.86,51.8c-3.94.07-5.92.12-9.86.24Q248.07,251.54,247.46,232.75Z"/><path class="cls-4" d="M298.35,255.35c-6.05-.28-9.08-.38-15.14-.51-.14,6.09-.2,9.14-.34,15.24-3.94-.09-5.91-.12-9.86-.14q.18-25.91.34-51.81c8.9.06,17.82.19,26.68.62C326,220,324.12,256,298.35,255.35Zm-14.94-9.47c6.14.14,9.21.24,15.35.52,12.37-.26,13.76-17.17.84-18.33-6.31-.29-9.47-.4-15.78-.54C283.65,234.87,283.57,238.54,283.41,245.88Z"/><path class="cls-4" d="M344.22,222.3l-4.74,42.51c10.86,1.21,16.28,1.93,27.1,3.61-.56,3.57-.83,5.35-1.39,8.92q-18.19-2.82-36.53-4.57,2.46-25.78,4.93-51.57C337.84,221.61,340,221.83,344.22,222.3Z"/><path class="cls-4" d="M415.61,287.29q-19.12-4.59-38.52-8,4.47-25.53,8.92-51c14,2.57,27.85,5.44,41.7,8.64-.89,3.69-1.33,5.53-2.21,9.21-10.2-2.47-20.5-4.69-30.8-6.63-.9,4.68-1.34,7-2.24,11.7,9.77,1.84,19.52,3.94,29.18,6.26-.84,3.55-1.26,5.32-2.11,8.86-9.52-2.3-19.15-4.36-28.78-6.17-.87,4.59-1.31,6.89-2.19,11.48,9.81,1.85,19.61,4,29.3,6.31Z"/><text class="cls-5" transform="translate(24.37 432.19)">RE<tspan class="cls-6" x="146.62" y="0">C</tspan><tspan class="cls-7" x="224.33" y="0">IPI</tspan><tspan class="cls-8" x="365.46" y="0">E</tspan><tspan class="cls-7" x="438.3" y="0">S</tspan></text></g></g></svg>